<svg id="budget" xmlns="http://www.w3.org/2000/svg" width="18" height="20" viewBox="0 0 18 20">
  <g id="Document">
    <path id="Path" d="M13.191,0H4.81C1.77,0,0,1.78,0,4.83V15.16C0,18.26,1.77,20,4.81,20h8.381C16.28,20,18,18.26,18,15.16V4.83C18,1.78,16.28,0,13.191,0" fill="#4842a8"/>
  </g>
  <g id="dollar-sign" transform="translate(5.877 4.354)">
    <line id="Line_18" data-name="Line 18" y2="11.291" transform="translate(3.123)" fill="none" stroke="#fff" stroke-linecap="round" stroke-linejoin="round" stroke-width="1"/>
    <path id="Path_29594" data-name="Path 29594" d="M11.726,5h-3.9A1.751,1.751,0,0,0,6,6.671,1.751,1.751,0,0,0,7.822,8.341h2.6a1.751,1.751,0,0,1,1.822,1.671,1.751,1.751,0,0,1-1.822,1.671H6" transform="translate(-6 -2.603)" fill="none" stroke="#fff" stroke-linecap="round" stroke-linejoin="round" stroke-width="1"/>
  </g>
</svg>
